<?xml version="1.0" encoding="utf-8"?>
<!-- Generator: Adobe Illustrator 18.0.0, SVG Export Plug-In . SVG Version: 6.00 Build 0)  -->
<!DOCTYPE svg PUBLIC "-//W3C//DTD SVG 1.1//EN" "http://www.w3.org/Graphics/SVG/1.1/DTD/svg11.dtd">
<svg version="1.1" id="Layer_1" xmlns="http://www.w3.org/2000/svg" xmlns:xlink="http://www.w3.org/1999/xlink" x="0px" y="0px"
	 viewBox="0 0 360 360" enable-background="new 0 0 360 360" xml:space="preserve">
<g>
	<line fill="#FFFFFF" x1="29" y1="178" x2="332" y2="178"/>
	<g>
		<path fill="#4D4D4D" d="M29,198.2c41.4,0,82.8,0,124.2,0c55.5,0,111.1,0,166.6,0c4.1,0,8.1,0,12.2,0c10.9,0,20-9.1,20-20
			c0-10.9-9.1-20-20-20c-41.4,0-82.8,0-124.2,0c-55.5,0-111.1,0-166.6,0c-4.1,0-8.1,0-12.2,0c-10.9,0-20,9.1-20,20
			C9,189.1,18.1,198.2,29,198.2L29,198.2z"/>
	</g>
</g>
<g>
	<g>
		<path fill="#4D4D4D" d="M221.8,126.3c33.4,23.1,66.7,46.1,100.1,69.2c9,6.2,22.2,1.7,27.4-7.2c5.8-9.9,1.8-21.2-7.2-27.4
			c-33.4-23.1-66.7-46.1-100.1-69.2c-9-6.2-22.2-1.7-27.4,7.2C208.8,108.9,212.9,120.1,221.8,126.3L221.8,126.3z"/>
	</g>
</g>
<g>
	<g>
		<path fill="#4D4D4D" d="M321.9,160.9c-33.4,23.9-66.7,47.9-100.1,71.8c-8.8,6.3-13.1,17.3-7.2,27.4c5.1,8.7,18.5,13.5,27.4,7.2
			c33.4-23.9,66.7-47.9,100.1-71.8c8.8-6.3,13.1-17.3,7.2-27.4C344.1,159.4,330.8,154.6,321.9,160.9L321.9,160.9z"/>
	</g>
</g>
</svg>
